
<svg version="1.1" xmlns="http://www.w3.org/2000/svg" xmlns:xlink="http://www.w3.org/1999/xlink" x="0px" y="0px" viewBox="0 0 1000 1000" enable-background="new 0 0 1000 1000" xml:space="preserve">
<g><path fill="rgba(252, 57, 105, 1)" d="M945.5,101.1c-48.7-34.1-112-24.3-150.9,24.3L385.6,661L181.1,500.4c-48.7-34.1-112-24.3-150.9,24.3c-34.1,48.7-24.3,112,24.3,150.9l282.4,219.1c4.9,0,4.9,4.9,4.9,4.9c24.3,14.6,53.6,19.5,77.9,19.5c24.3-4.9,53.6-19.5,73-43.8c9.7-9.7,9.7-14.6,9.7-14.6l467.4-608.6C1003.9,198.5,994.2,135.2,945.5,101.1z"/></g>
</svg>